<mxfile host="app.diagrams.net" modified="2023-10-19T17:34:21.634Z" agent="Mozilla/5.0 (Windows NT 10.0; Win64; x64; rv:109.0) Gecko/20100101 Firefox/118.0" etag="CO1rYJwez53U0zOz-rjn" version="22.0.5" type="device" pages="2">
  <diagram name="Seite-1" id="blMBQNTNhGBu8Rx8HMqb">
    <mxGraphModel dx="2074" dy="1134" grid="1" gridSize="10" guides="1" tooltips="1" connect="1" arrows="1" fold="1" page="1" pageScale="1" pageWidth="827" pageHeight="1169" background="#ffffff" math="0" shadow="0">
      <root>
        <mxCell id="0" />
        <mxCell id="1" parent="0" />
        <mxCell id="atf7lGGD14PpyUcBDeHD-6" value="uc - vollständiger Überblick" style="text;html=1;strokeColor=none;fillColor=none;align=center;verticalAlign=middle;whiteSpace=wrap;rounded=0;fontSize=16;" parent="1" vertex="1">
          <mxGeometry y="30" width="260" height="30" as="geometry" />
        </mxCell>
        <mxCell id="atf7lGGD14PpyUcBDeHD-8" value="" style="endArrow=none;html=1;rounded=0;fontSize=12;startSize=8;endSize=8;curved=1;entryX=0.001;entryY=0.068;entryDx=0;entryDy=0;entryPerimeter=0;" parent="1" edge="1">
          <mxGeometry width="50" height="50" relative="1" as="geometry">
            <mxPoint x="300.23" y="60" as="sourcePoint" />
            <mxPoint x="49.999999999999986" y="60.320000000000164" as="targetPoint" />
          </mxGeometry>
        </mxCell>
        <mxCell id="atf7lGGD14PpyUcBDeHD-15" value="Benutzer" style="shape=umlActor;verticalLabelPosition=bottom;verticalAlign=top;html=1;outlineConnect=0;fontSize=16;" parent="1" vertex="1">
          <mxGeometry x="40" y="100" width="50" height="100" as="geometry" />
        </mxCell>
        <mxCell id="-GIEK-3c1dXf9tlaoVzA-2" value="Toiletten finden" style="ellipse;whiteSpace=wrap;html=1;fontSize=16;verticalAlign=top;" parent="1" vertex="1">
          <mxGeometry x="650" y="410" width="85" height="50" as="geometry" />
        </mxCell>
        <mxCell id="-GIEK-3c1dXf9tlaoVzA-3" value="Toiletten hinzufügen" style="ellipse;whiteSpace=wrap;html=1;fontSize=16;verticalAlign=top;" parent="1" vertex="1">
          <mxGeometry x="415" y="410" width="85" height="50" as="geometry" />
        </mxCell>
        <mxCell id="-GIEK-3c1dXf9tlaoVzA-4" value="Toiletten filtern" style="ellipse;whiteSpace=wrap;html=1;fontSize=16;verticalAlign=top;" parent="1" vertex="1">
          <mxGeometry x="290" y="410" width="85" height="50" as="geometry" />
        </mxCell>
        <mxCell id="-GIEK-3c1dXf9tlaoVzA-5" value="Toiletten bewerten" style="ellipse;whiteSpace=wrap;html=1;fontSize=16;verticalAlign=top;" parent="1" vertex="1">
          <mxGeometry x="170" y="410" width="85" height="50" as="geometry" />
        </mxCell>
        <mxCell id="-GIEK-3c1dXf9tlaoVzA-6" value="Reiter benutzen" style="ellipse;whiteSpace=wrap;html=1;fontSize=16;verticalAlign=top;" parent="1" vertex="1">
          <mxGeometry x="530" y="410" width="85" height="50" as="geometry" />
        </mxCell>
        <mxCell id="-GIEK-3c1dXf9tlaoVzA-7" value="" style="endArrow=none;html=1;rounded=0;exitX=0.5;exitY=0.5;exitDx=0;exitDy=0;exitPerimeter=0;" parent="1" source="atf7lGGD14PpyUcBDeHD-15" target="-GIEK-3c1dXf9tlaoVzA-4" edge="1">
          <mxGeometry width="50" height="50" relative="1" as="geometry">
            <mxPoint x="360" y="570" as="sourcePoint" />
            <mxPoint x="410" y="520" as="targetPoint" />
          </mxGeometry>
        </mxCell>
        <mxCell id="-GIEK-3c1dXf9tlaoVzA-10" value="" style="endArrow=none;html=1;rounded=0;exitX=0.5;exitY=0.5;exitDx=0;exitDy=0;exitPerimeter=0;" parent="1" source="atf7lGGD14PpyUcBDeHD-15" target="-GIEK-3c1dXf9tlaoVzA-2" edge="1">
          <mxGeometry width="50" height="50" relative="1" as="geometry">
            <mxPoint x="65" y="150" as="sourcePoint" />
            <mxPoint x="410" y="520" as="targetPoint" />
          </mxGeometry>
        </mxCell>
        <mxCell id="-GIEK-3c1dXf9tlaoVzA-11" value="Website aufrufen" style="ellipse;whiteSpace=wrap;html=1;fontSize=16;verticalAlign=top;" parent="1" vertex="1">
          <mxGeometry x="340" y="200" width="85" height="50" as="geometry" />
        </mxCell>
        <mxCell id="-GIEK-3c1dXf9tlaoVzA-15" value="" style="endArrow=none;html=1;rounded=0;exitX=0.5;exitY=0.5;exitDx=0;exitDy=0;exitPerimeter=0;" parent="1" source="atf7lGGD14PpyUcBDeHD-15" target="-GIEK-3c1dXf9tlaoVzA-11" edge="1">
          <mxGeometry width="50" height="50" relative="1" as="geometry">
            <mxPoint x="530" y="570" as="sourcePoint" />
            <mxPoint x="580" y="520" as="targetPoint" />
          </mxGeometry>
        </mxCell>
        <mxCell id="-GIEK-3c1dXf9tlaoVzA-16" value="&lt;div&gt;&amp;lt;&amp;lt;Vorbedingung&amp;gt;&amp;gt;&lt;/div&gt;&lt;div&gt;{Applikation gestartet}&lt;/div&gt;&lt;div&gt;Extension Points: Toiletten finden, Reiter benutzen, Toiletten filtern, Toiletten bewerten, Toiletten hinzufügen&lt;br&gt;&lt;/div&gt;" style="shape=note;whiteSpace=wrap;html=1;backgroundOutline=1;darkOpacity=0.05;" parent="1" vertex="1">
          <mxGeometry x="500" y="20" width="260" height="80" as="geometry" />
        </mxCell>
        <mxCell id="-GIEK-3c1dXf9tlaoVzA-28" value="" style="endArrow=oval;html=1;rounded=0;endFill=0;" parent="1" source="-GIEK-3c1dXf9tlaoVzA-16" edge="1">
          <mxGeometry width="50" height="50" relative="1" as="geometry">
            <mxPoint x="430" y="350" as="sourcePoint" />
            <mxPoint x="520" y="320" as="targetPoint" />
          </mxGeometry>
        </mxCell>
        <mxCell id="-GIEK-3c1dXf9tlaoVzA-31" value="&lt;font style=&quot;font-size: 7px;&quot;&gt;Der Benutzer startet die Toimaps Website&lt;/font&gt;" style="shape=note;whiteSpace=wrap;html=1;backgroundOutline=1;darkOpacity=0.05;" parent="1" vertex="1">
          <mxGeometry x="210" y="100" width="150" height="50" as="geometry" />
        </mxCell>
        <mxCell id="-GIEK-3c1dXf9tlaoVzA-41" value="" style="endArrow=open;html=1;rounded=0;endFill=0;dashed=1;" parent="1" source="-GIEK-3c1dXf9tlaoVzA-11" target="-GIEK-3c1dXf9tlaoVzA-5" edge="1">
          <mxGeometry width="50" height="50" relative="1" as="geometry">
            <mxPoint x="360" y="199" as="sourcePoint" />
            <mxPoint x="409" y="291" as="targetPoint" />
          </mxGeometry>
        </mxCell>
        <mxCell id="-GIEK-3c1dXf9tlaoVzA-42" value="&lt;div style=&quot;font-size: 10px;&quot;&gt;&lt;font style=&quot;font-size: 9px;&quot;&gt;&amp;lt;&amp;lt;extend&amp;gt;&amp;gt;&lt;/font&gt;&lt;/div&gt;" style="edgeLabel;html=1;align=center;verticalAlign=middle;resizable=0;points=[];" parent="-GIEK-3c1dXf9tlaoVzA-41" vertex="1" connectable="0">
          <mxGeometry x="-0.2768" relative="1" as="geometry">
            <mxPoint x="-27" y="8" as="offset" />
          </mxGeometry>
        </mxCell>
        <mxCell id="-GIEK-3c1dXf9tlaoVzA-43" value="" style="endArrow=open;html=1;rounded=0;endFill=0;dashed=1;" parent="1" source="-GIEK-3c1dXf9tlaoVzA-11" target="-GIEK-3c1dXf9tlaoVzA-4" edge="1">
          <mxGeometry width="50" height="50" relative="1" as="geometry">
            <mxPoint x="370" y="209" as="sourcePoint" />
            <mxPoint x="419" y="301" as="targetPoint" />
          </mxGeometry>
        </mxCell>
        <mxCell id="-GIEK-3c1dXf9tlaoVzA-44" value="&lt;div style=&quot;font-size: 10px;&quot;&gt;&lt;font style=&quot;font-size: 9px;&quot;&gt;&amp;lt;&amp;lt;extend&amp;gt;&amp;gt;&lt;/font&gt;&lt;/div&gt;" style="edgeLabel;html=1;align=center;verticalAlign=middle;resizable=0;points=[];" parent="-GIEK-3c1dXf9tlaoVzA-43" vertex="1" connectable="0">
          <mxGeometry x="-0.2768" relative="1" as="geometry">
            <mxPoint x="-27" y="8" as="offset" />
          </mxGeometry>
        </mxCell>
        <mxCell id="-GIEK-3c1dXf9tlaoVzA-45" value="" style="endArrow=open;html=1;rounded=0;endFill=0;dashed=1;" parent="1" source="-GIEK-3c1dXf9tlaoVzA-11" target="-GIEK-3c1dXf9tlaoVzA-3" edge="1">
          <mxGeometry width="50" height="50" relative="1" as="geometry">
            <mxPoint x="380" y="219" as="sourcePoint" />
            <mxPoint x="429" y="311" as="targetPoint" />
          </mxGeometry>
        </mxCell>
        <mxCell id="-GIEK-3c1dXf9tlaoVzA-46" value="&lt;div style=&quot;font-size: 10px;&quot;&gt;&lt;font style=&quot;font-size: 9px;&quot;&gt;&amp;lt;&amp;lt;extend&amp;gt;&amp;gt;&lt;/font&gt;&lt;/div&gt;" style="edgeLabel;html=1;align=center;verticalAlign=middle;resizable=0;points=[];" parent="-GIEK-3c1dXf9tlaoVzA-45" vertex="1" connectable="0">
          <mxGeometry x="-0.2768" relative="1" as="geometry">
            <mxPoint x="-27" y="8" as="offset" />
          </mxGeometry>
        </mxCell>
        <mxCell id="-GIEK-3c1dXf9tlaoVzA-47" value="" style="endArrow=open;html=1;rounded=0;endFill=0;dashed=1;" parent="1" target="-GIEK-3c1dXf9tlaoVzA-6" edge="1">
          <mxGeometry width="50" height="50" relative="1" as="geometry">
            <mxPoint x="390" y="230" as="sourcePoint" />
            <mxPoint x="439" y="321" as="targetPoint" />
          </mxGeometry>
        </mxCell>
        <mxCell id="-GIEK-3c1dXf9tlaoVzA-48" value="&lt;div style=&quot;font-size: 10px;&quot;&gt;&lt;font style=&quot;font-size: 9px;&quot;&gt;&amp;lt;&amp;lt;extend&amp;gt;&amp;gt;&lt;/font&gt;&lt;/div&gt;" style="edgeLabel;html=1;align=center;verticalAlign=middle;resizable=0;points=[];" parent="-GIEK-3c1dXf9tlaoVzA-47" vertex="1" connectable="0">
          <mxGeometry x="-0.2768" relative="1" as="geometry">
            <mxPoint x="-27" y="8" as="offset" />
          </mxGeometry>
        </mxCell>
        <mxCell id="-GIEK-3c1dXf9tlaoVzA-49" value="" style="endArrow=open;html=1;rounded=0;endFill=0;dashed=1;" parent="1" source="-GIEK-3c1dXf9tlaoVzA-11" target="-GIEK-3c1dXf9tlaoVzA-2" edge="1">
          <mxGeometry width="50" height="50" relative="1" as="geometry">
            <mxPoint x="400" y="239" as="sourcePoint" />
            <mxPoint x="449" y="331" as="targetPoint" />
          </mxGeometry>
        </mxCell>
        <mxCell id="-GIEK-3c1dXf9tlaoVzA-50" value="&lt;div style=&quot;font-size: 10px;&quot;&gt;&lt;font style=&quot;font-size: 9px;&quot;&gt;&amp;lt;&amp;lt;extend&amp;gt;&amp;gt;&lt;/font&gt;&lt;/div&gt;" style="edgeLabel;html=1;align=center;verticalAlign=middle;resizable=0;points=[];" parent="-GIEK-3c1dXf9tlaoVzA-49" vertex="1" connectable="0">
          <mxGeometry x="-0.2768" relative="1" as="geometry">
            <mxPoint x="-27" y="8" as="offset" />
          </mxGeometry>
        </mxCell>
        <mxCell id="-GIEK-3c1dXf9tlaoVzA-51" value="" style="endArrow=oval;html=1;rounded=0;endFill=0;" parent="1" source="-GIEK-3c1dXf9tlaoVzA-31" target="-GIEK-3c1dXf9tlaoVzA-11" edge="1">
          <mxGeometry width="50" height="50" relative="1" as="geometry">
            <mxPoint x="623" y="110" as="sourcePoint" />
            <mxPoint x="290" y="200" as="targetPoint" />
          </mxGeometry>
        </mxCell>
        <mxCell id="-GIEK-3c1dXf9tlaoVzA-52" value="" style="endArrow=none;html=1;rounded=0;exitX=0.5;exitY=0.5;exitDx=0;exitDy=0;exitPerimeter=0;" parent="1" source="atf7lGGD14PpyUcBDeHD-15" target="-GIEK-3c1dXf9tlaoVzA-5" edge="1">
          <mxGeometry width="50" height="50" relative="1" as="geometry">
            <mxPoint x="75" y="160" as="sourcePoint" />
            <mxPoint x="322" y="423" as="targetPoint" />
          </mxGeometry>
        </mxCell>
        <mxCell id="-GIEK-3c1dXf9tlaoVzA-54" value="" style="endArrow=none;html=1;rounded=0;" parent="1" source="atf7lGGD14PpyUcBDeHD-15" target="-GIEK-3c1dXf9tlaoVzA-6" edge="1">
          <mxGeometry width="50" height="50" relative="1" as="geometry">
            <mxPoint x="580" y="220" as="sourcePoint" />
            <mxPoint x="630" y="170" as="targetPoint" />
          </mxGeometry>
        </mxCell>
        <mxCell id="-GIEK-3c1dXf9tlaoVzA-55" value="" style="endArrow=none;html=1;rounded=0;exitX=0.5;exitY=0.5;exitDx=0;exitDy=0;exitPerimeter=0;" parent="1" source="atf7lGGD14PpyUcBDeHD-15" target="-GIEK-3c1dXf9tlaoVzA-3" edge="1">
          <mxGeometry width="50" height="50" relative="1" as="geometry">
            <mxPoint x="580" y="220" as="sourcePoint" />
            <mxPoint x="630" y="170" as="targetPoint" />
          </mxGeometry>
        </mxCell>
      </root>
    </mxGraphModel>
  </diagram>
  <diagram id="s-P-Uv4lWAX1PoPrjFf3" name="Seite-2">
    <mxGraphModel dx="2074" dy="1134" grid="1" gridSize="10" guides="1" tooltips="1" connect="1" arrows="1" fold="1" page="1" pageScale="1" pageWidth="827" pageHeight="1169" math="0" shadow="0">
      <root>
        <mxCell id="0" />
        <mxCell id="1" parent="0" />
        <mxCell id="WYdiT_wAn5JYep4HsiDc-5" value="" style="rounded=0;orthogonalLoop=1;jettySize=auto;html=1;endArrow=none;endFill=0;exitX=0.5;exitY=0.5;exitDx=0;exitDy=0;exitPerimeter=0;" parent="1" source="WYdiT_wAn5JYep4HsiDc-1" target="WYdiT_wAn5JYep4HsiDc-4" edge="1">
          <mxGeometry relative="1" as="geometry" />
        </mxCell>
        <mxCell id="WYdiT_wAn5JYep4HsiDc-7" style="rounded=0;orthogonalLoop=1;jettySize=auto;html=1;entryX=0;entryY=0.5;entryDx=0;entryDy=0;endArrow=none;endFill=0;exitX=0.5;exitY=0.5;exitDx=0;exitDy=0;exitPerimeter=0;" parent="1" source="WYdiT_wAn5JYep4HsiDc-1" target="WYdiT_wAn5JYep4HsiDc-6" edge="1">
          <mxGeometry relative="1" as="geometry" />
        </mxCell>
        <mxCell id="WYdiT_wAn5JYep4HsiDc-1" value="Benutzer" style="shape=umlActor;verticalLabelPosition=bottom;verticalAlign=top;html=1;outlineConnect=0;" parent="1" vertex="1">
          <mxGeometry x="50" y="201" width="30" height="60" as="geometry" />
        </mxCell>
        <mxCell id="WYdiT_wAn5JYep4HsiDc-4" value="Clickevent &quot;Services&quot;" style="ellipse;whiteSpace=wrap;html=1;verticalAlign=middle;" parent="1" vertex="1">
          <mxGeometry x="250" y="240" width="85" height="60" as="geometry" />
        </mxCell>
        <mxCell id="WYdiT_wAn5JYep4HsiDc-6" value="Clickevent &quot;Toilette hinzufügen&quot;" style="ellipse;whiteSpace=wrap;html=1;verticalAlign=middle;" parent="1" vertex="1">
          <mxGeometry x="230" y="340" width="85" height="60" as="geometry" />
        </mxCell>
        <mxCell id="WYdiT_wAn5JYep4HsiDc-10" value="Bezeichnung und Koordinaten eingetragen" style="ellipse;whiteSpace=wrap;html=1;verticalAlign=middle;" parent="1" vertex="1">
          <mxGeometry x="460" y="270" width="130" height="82" as="geometry" />
        </mxCell>
        <mxCell id="WYdiT_wAn5JYep4HsiDc-11" value="" style="endArrow=none;html=1;rounded=0;dashed=1;endFill=0;startArrow=open;startFill=0;" parent="1" source="WYdiT_wAn5JYep4HsiDc-10" target="WYdiT_wAn5JYep4HsiDc-4" edge="1">
          <mxGeometry width="50" height="50" relative="1" as="geometry">
            <mxPoint x="260" y="342" as="sourcePoint" />
            <mxPoint x="310" y="292" as="targetPoint" />
          </mxGeometry>
        </mxCell>
        <mxCell id="WYdiT_wAn5JYep4HsiDc-14" value="&amp;lt;&amp;lt;include&amp;gt;&amp;gt;" style="edgeLabel;html=1;align=center;verticalAlign=middle;resizable=0;points=[];" parent="WYdiT_wAn5JYep4HsiDc-11" vertex="1" connectable="0">
          <mxGeometry x="-0.1276" y="2" relative="1" as="geometry">
            <mxPoint as="offset" />
          </mxGeometry>
        </mxCell>
        <mxCell id="WYdiT_wAn5JYep4HsiDc-13" value="" style="endArrow=open;html=1;rounded=0;startArrow=none;startFill=0;endFill=0;dashed=1;" parent="1" source="WYdiT_wAn5JYep4HsiDc-6" target="WYdiT_wAn5JYep4HsiDc-10" edge="1">
          <mxGeometry width="50" height="50" relative="1" as="geometry">
            <mxPoint x="390" y="540" as="sourcePoint" />
            <mxPoint x="440" y="490" as="targetPoint" />
          </mxGeometry>
        </mxCell>
        <mxCell id="WYdiT_wAn5JYep4HsiDc-15" value="&amp;lt;&amp;lt;include&amp;gt;&amp;gt;" style="edgeLabel;html=1;align=center;verticalAlign=middle;resizable=0;points=[];" parent="WYdiT_wAn5JYep4HsiDc-13" vertex="1" connectable="0">
          <mxGeometry x="-0.1665" y="-1" relative="1" as="geometry">
            <mxPoint x="-1" as="offset" />
          </mxGeometry>
        </mxCell>
        <mxCell id="WYdiT_wAn5JYep4HsiDc-16" value="Tags anpinnen" style="ellipse;whiteSpace=wrap;html=1;verticalAlign=middle;" parent="1" vertex="1">
          <mxGeometry x="210" y="490" width="85" height="60" as="geometry" />
        </mxCell>
        <mxCell id="WYdiT_wAn5JYep4HsiDc-17" value="" style="endArrow=open;dashed=1;html=1;rounded=0;exitX=0.5;exitY=0;exitDx=0;exitDy=0;endFill=0;" parent="1" source="WYdiT_wAn5JYep4HsiDc-16" target="WYdiT_wAn5JYep4HsiDc-10" edge="1">
          <mxGeometry width="50" height="50" relative="1" as="geometry">
            <mxPoint x="390" y="540" as="sourcePoint" />
            <mxPoint x="440" y="490" as="targetPoint" />
          </mxGeometry>
        </mxCell>
        <mxCell id="WYdiT_wAn5JYep4HsiDc-18" value="&amp;lt;&amp;lt;extend&amp;gt;&amp;gt;" style="edgeLabel;html=1;align=center;verticalAlign=middle;resizable=0;points=[];" parent="WYdiT_wAn5JYep4HsiDc-17" vertex="1" connectable="0">
          <mxGeometry x="0.3846" relative="1" as="geometry">
            <mxPoint as="offset" />
          </mxGeometry>
        </mxCell>
        <mxCell id="WYdiT_wAn5JYep4HsiDc-19" value="&lt;div&gt;&amp;lt;&amp;lt;Vorbedingung&amp;gt;&amp;gt;&lt;/div&gt;&lt;div&gt;{Tag existiert}&lt;/div&gt;&lt;div&gt;Extension Point: Tags anpinnen&lt;br&gt;&lt;/div&gt;" style="shape=note;whiteSpace=wrap;html=1;backgroundOutline=1;darkOpacity=0.05;" parent="1" vertex="1">
          <mxGeometry x="324" y="460" width="180" height="52" as="geometry" />
        </mxCell>
        <mxCell id="WYdiT_wAn5JYep4HsiDc-20" value="" style="endArrow=none;html=1;rounded=0;entryX=0;entryY=0.5;entryDx=0;entryDy=0;entryPerimeter=0;endFill=0;startArrow=oval;startFill=0;exitX=0.501;exitY=-0.05;exitDx=0;exitDy=0;exitPerimeter=0;" parent="1" source="WYdiT_wAn5JYep4HsiDc-16" target="WYdiT_wAn5JYep4HsiDc-19" edge="1">
          <mxGeometry width="50" height="50" relative="1" as="geometry">
            <mxPoint x="390" y="300" as="sourcePoint" />
            <mxPoint x="520" y="305.92" as="targetPoint" />
          </mxGeometry>
        </mxCell>
        <mxCell id="WYdiT_wAn5JYep4HsiDc-21" value="Toilettenart zuweisen" style="ellipse;whiteSpace=wrap;html=1;verticalAlign=middle;" parent="1" vertex="1">
          <mxGeometry x="400" y="70" width="85" height="60" as="geometry" />
        </mxCell>
        <mxCell id="WYdiT_wAn5JYep4HsiDc-22" value="" style="endArrow=none;dashed=1;html=1;rounded=0;endFill=0;startArrow=open;startFill=0;" parent="1" source="WYdiT_wAn5JYep4HsiDc-21" target="WYdiT_wAn5JYep4HsiDc-10" edge="1">
          <mxGeometry width="50" height="50" relative="1" as="geometry">
            <mxPoint x="350" y="350" as="sourcePoint" />
            <mxPoint x="400" y="300" as="targetPoint" />
          </mxGeometry>
        </mxCell>
        <mxCell id="WYdiT_wAn5JYep4HsiDc-23" value="&amp;lt;&amp;lt;include&amp;gt;&amp;gt;" style="edgeLabel;html=1;align=center;verticalAlign=middle;resizable=0;points=[];" parent="WYdiT_wAn5JYep4HsiDc-22" vertex="1" connectable="0">
          <mxGeometry x="-0.1458" y="-1" relative="1" as="geometry">
            <mxPoint as="offset" />
          </mxGeometry>
        </mxCell>
        <mxCell id="WYdiT_wAn5JYep4HsiDc-26" value="" style="endArrow=none;html=1;rounded=0;exitX=0.5;exitY=0.5;exitDx=0;exitDy=0;exitPerimeter=0;" parent="1" source="WYdiT_wAn5JYep4HsiDc-1" target="WYdiT_wAn5JYep4HsiDc-16" edge="1">
          <mxGeometry width="50" height="50" relative="1" as="geometry">
            <mxPoint x="350" y="320" as="sourcePoint" />
            <mxPoint x="400" y="270" as="targetPoint" />
          </mxGeometry>
        </mxCell>
        <mxCell id="WYdiT_wAn5JYep4HsiDc-27" value="" style="endArrow=none;html=1;rounded=0;entryX=0.005;entryY=0.633;entryDx=0;entryDy=0;entryPerimeter=0;exitX=0.5;exitY=0.5;exitDx=0;exitDy=0;exitPerimeter=0;" parent="1" source="WYdiT_wAn5JYep4HsiDc-1" target="WYdiT_wAn5JYep4HsiDc-21" edge="1">
          <mxGeometry width="50" height="50" relative="1" as="geometry">
            <mxPoint x="350" y="320" as="sourcePoint" />
            <mxPoint x="400" y="270" as="targetPoint" />
          </mxGeometry>
        </mxCell>
        <mxCell id="WYdiT_wAn5JYep4HsiDc-28" value="Clickevent &quot;Toilette hinzufügen&quot;" style="ellipse;whiteSpace=wrap;html=1;verticalAlign=middle;" parent="1" vertex="1">
          <mxGeometry x="610" y="100" width="85" height="60" as="geometry" />
        </mxCell>
        <mxCell id="WYdiT_wAn5JYep4HsiDc-29" value="" style="endArrow=none;dashed=1;html=1;rounded=0;endFill=0;startArrow=open;startFill=0;" parent="1" source="WYdiT_wAn5JYep4HsiDc-28" target="WYdiT_wAn5JYep4HsiDc-21" edge="1">
          <mxGeometry width="50" height="50" relative="1" as="geometry">
            <mxPoint x="350" y="350" as="sourcePoint" />
            <mxPoint x="400" y="300" as="targetPoint" />
          </mxGeometry>
        </mxCell>
        <mxCell id="WYdiT_wAn5JYep4HsiDc-30" value="&amp;lt;&amp;lt;include&amp;gt;&amp;gt;" style="edgeLabel;html=1;align=center;verticalAlign=middle;resizable=0;points=[];" parent="WYdiT_wAn5JYep4HsiDc-29" vertex="1" connectable="0">
          <mxGeometry x="-0.0743" y="-2" relative="1" as="geometry">
            <mxPoint as="offset" />
          </mxGeometry>
        </mxCell>
        <mxCell id="WYdiT_wAn5JYep4HsiDc-33" value="" style="endArrow=open;dashed=1;html=1;rounded=0;startArrow=none;startFill=0;endFill=0;exitX=0.462;exitY=-0.05;exitDx=0;exitDy=0;exitPerimeter=0;" parent="1" source="WYdiT_wAn5JYep4HsiDc-32" target="WYdiT_wAn5JYep4HsiDc-28" edge="1">
          <mxGeometry width="50" height="50" relative="1" as="geometry">
            <mxPoint x="360" y="350" as="sourcePoint" />
            <mxPoint x="410" y="300" as="targetPoint" />
          </mxGeometry>
        </mxCell>
        <mxCell id="WYdiT_wAn5JYep4HsiDc-34" value="&amp;lt;&amp;lt;extend&amp;gt;&amp;gt;" style="edgeLabel;html=1;align=center;verticalAlign=middle;resizable=0;points=[];" parent="WYdiT_wAn5JYep4HsiDc-33" vertex="1" connectable="0">
          <mxGeometry x="-0.101" y="1" relative="1" as="geometry">
            <mxPoint as="offset" />
          </mxGeometry>
        </mxCell>
        <mxCell id="WYdiT_wAn5JYep4HsiDc-37" value="" style="endArrow=none;html=1;rounded=0;exitX=0.5;exitY=0.5;exitDx=0;exitDy=0;exitPerimeter=0;" parent="1" source="WYdiT_wAn5JYep4HsiDc-1" target="WYdiT_wAn5JYep4HsiDc-28" edge="1">
          <mxGeometry width="50" height="50" relative="1" as="geometry">
            <mxPoint x="380" y="320" as="sourcePoint" />
            <mxPoint x="430" y="270" as="targetPoint" />
          </mxGeometry>
        </mxCell>
        <mxCell id="WYdiT_wAn5JYep4HsiDc-38" value="" style="endArrow=none;html=1;rounded=0;exitX=0.5;exitY=0.5;exitDx=0;exitDy=0;exitPerimeter=0;" parent="1" source="WYdiT_wAn5JYep4HsiDc-1" target="WYdiT_wAn5JYep4HsiDc-32" edge="1">
          <mxGeometry width="50" height="50" relative="1" as="geometry">
            <mxPoint x="75" y="202" as="sourcePoint" />
            <mxPoint x="602" y="79" as="targetPoint" />
          </mxGeometry>
        </mxCell>
        <mxCell id="WYdiT_wAn5JYep4HsiDc-39" value="" style="group" parent="1" vertex="1" connectable="0">
          <mxGeometry x="610" y="139" width="370" height="122" as="geometry" />
        </mxCell>
        <mxCell id="WYdiT_wAn5JYep4HsiDc-32" value="&lt;div&gt;hinzugefügte Toilette ansehen&lt;/div&gt;" style="ellipse;whiteSpace=wrap;html=1;verticalAlign=middle;" parent="WYdiT_wAn5JYep4HsiDc-39" vertex="1">
          <mxGeometry y="62" width="85" height="60" as="geometry" />
        </mxCell>
        <mxCell id="WYdiT_wAn5JYep4HsiDc-35" value="&lt;div&gt;&amp;lt;&amp;lt;Vorbedingung&amp;gt;&amp;gt;&lt;/div&gt;&lt;div&gt;{hinzugefügte Toilette möchte angesehen werden}&lt;/div&gt;&lt;div&gt;Extension Point: hinzugefügte Toilette ansehen&lt;br&gt;&lt;/div&gt;" style="shape=note;whiteSpace=wrap;html=1;backgroundOutline=1;darkOpacity=0.05;" parent="WYdiT_wAn5JYep4HsiDc-39" vertex="1">
          <mxGeometry x="117" width="253" height="90" as="geometry" />
        </mxCell>
        <mxCell id="WYdiT_wAn5JYep4HsiDc-36" value="" style="endArrow=none;html=1;rounded=0;entryX=0;entryY=0.5;entryDx=0;entryDy=0;entryPerimeter=0;endFill=0;startArrow=oval;startFill=0;" parent="WYdiT_wAn5JYep4HsiDc-39" target="WYdiT_wAn5JYep4HsiDc-35" edge="1">
          <mxGeometry width="50" height="50" relative="1" as="geometry">
            <mxPoint x="40" y="60" as="sourcePoint" />
            <mxPoint x="267" y="-64.07999999999998" as="targetPoint" />
          </mxGeometry>
        </mxCell>
        <mxCell id="WYdiT_wAn5JYep4HsiDc-42" value="" style="rounded=0;whiteSpace=wrap;html=1;fillColor=none;" parent="1" vertex="1">
          <mxGeometry x="100" y="60" width="910" height="500" as="geometry" />
        </mxCell>
        <mxCell id="WYdiT_wAn5JYep4HsiDc-43" value="Applikation" style="text;html=1;strokeColor=none;fillColor=none;align=center;verticalAlign=middle;whiteSpace=wrap;rounded=0;" parent="1" vertex="1">
          <mxGeometry x="940" y="60" width="60" height="30" as="geometry" />
        </mxCell>
        <mxCell id="WYdiT_wAn5JYep4HsiDc-44" value="&lt;b&gt;uc&lt;/b&gt; Detaildiagram_Toilette_hinzufügen" style="shape=umlFrame;whiteSpace=wrap;html=1;pointerEvents=0;width=215;height=30;" parent="1" vertex="1">
          <mxGeometry x="35" y="20" width="1005" height="560" as="geometry" />
        </mxCell>
      </root>
    </mxGraphModel>
  </diagram>
</mxfile>
